<svg width="1024" height="1024" viewBox="0 0 1024 1024" fill="none" xmlns="http://www.w3.org/2000/svg">
  <defs>
    <linearGradient id="bg" x1="140" y1="96" x2="884" y2="928" gradientUnits="userSpaceOnUse">
      <stop stop-color="#FEFEFD"/>
      <stop offset="1" stop-color="#E9E9E7"/>
    </linearGradient>
    <linearGradient id="card" x1="276" y1="214" x2="748" y2="760" gradientUnits="userSpaceOnUse">
      <stop stop-color="#FAFAF9"/>
      <stop offset="1" stop-color="#D9D9D6"/>
    </linearGradient>
    <linearGradient id="fold" x1="695" y1="475" x2="803" y2="610" gradientUnits="userSpaceOnUse">
      <stop stop-color="#F7F7F6"/>
      <stop offset="1" stop-color="#CBCBC9"/>
    </linearGradient>
    <filter id="shadow" x="150" y="130" width="724" height="742" filterUnits="userSpaceOnUse" color-interpolation-filters="sRGB">
      <feFlood flood-opacity="0" result="BackgroundImageFix"/>
      <feColorMatrix in="SourceAlpha" type="matrix" values="0 0 0 0 0 0 0 0 0 0 0 0 0 0 0 0 0 0 127 0" result="hardAlpha"/>
      <feOffset dy="22"/>
      <feGaussianBlur stdDeviation="22"/>
      <feColorMatrix type="matrix" values="0 0 0 0 0.62 0 0 0 0 0.62 0 0 0 0 0.62 0 0 0 0.24 0"/>
      <feBlend mode="normal" in2="BackgroundImageFix" result="effect1_dropShadow_1_1"/>
      <feBlend mode="normal" in="SourceGraphic" in2="effect1_dropShadow_1_1" result="shape"/>
    </filter>
  </defs>
  <rect x="48" y="48" width="928" height="928" rx="220" fill="url(#bg)"/>
  <rect x="48" y="48" width="928" height="928" rx="220" stroke="#F2F2F0" stroke-width="6"/>
  <g filter="url(#shadow)">
    <rect x="238" y="206" width="548" height="548" rx="56" fill="url(#card)"/>
    <rect x="238" y="206" width="548" height="548" rx="56" stroke="#ECECEA" stroke-width="6"/>
    <rect x="238" y="673" width="548" height="78" rx="34" fill="#D4D4D2"/>
    <path d="M684 505C684 462.013 718.842 427.171 761.829 427.171H786V490C786 553.513 734.513 605 671 605H619.171V580.829C619.171 537.842 654.013 503 697 503H684V505Z" fill="url(#fold)"/>
    <path d="M684 505C684 462.013 718.842 427.171 761.829 427.171H786V490C786 553.513 734.513 605 671 605H619.171V580.829C619.171 537.842 654.013 503 697 503" stroke="#D5D5D3" stroke-width="4"/>
    <g fill="#B3B3B3">
      <circle cx="320" cy="286" r="20"/>
      <circle cx="412" cy="286" r="20"/>
      <circle cx="504" cy="286" r="20"/>
      <circle cx="596" cy="286" r="20"/>
      <circle cx="688" cy="286" r="20"/>
    </g>
  </g>
</svg>
